<svg width="12" height="12" viewBox="0 0 12 12" fill="none" xmlns="http://www.w3.org/2000/svg">
<g clip-path="url(#clip0_250_223)">
<rect x="1" y="0.999939" width="10" height="10" fill="white"/>
<path d="M10.2246 10.2247H8.44654V7.44018C8.44654 6.77618 8.43469 5.92141 7.52179 5.92141C6.59573 5.92141 6.45405 6.64486 6.45405 7.39184V10.2245H4.67602V4.49841H6.38292V5.28094H6.40682C6.75486 4.68584 7.40201 4.33041 8.09094 4.35598C9.89304 4.35598 10.2253 5.54135 10.2253 7.08345L10.2246 10.2247ZM2.66982 3.71569C2.09996 3.71579 1.63792 3.25391 1.63782 2.68404C1.63772 2.11418 2.09959 1.65213 2.66944 1.65203C3.2393 1.65192 3.70134 2.11381 3.70144 2.68367C3.70149 2.95733 3.59283 3.2198 3.39936 3.41334C3.20589 3.60688 2.94347 3.71564 2.66982 3.71569ZM3.55883 10.2247H1.77895V4.49841H3.55883V10.2247ZM11.111 0.000833751H0.885493C0.402215 -0.00462016 0.00589814 0.382504 0 0.865788V11.1339C0.00569621 11.6174 0.401982 12.0049 0.885493 11.9999H11.111C11.5955 12.0059 11.9933 11.6184 12 11.1339V0.865047C11.9931 0.380809 11.5952 -0.00629362 11.111 1.49904e-05" fill="#0A66C2"/>
</g>
<defs>
<clipPath id="clip0_250_223">
<rect width="12" height="12" fill="white"/>
</clipPath>
</defs>
</svg>
