<svg width="32" height="32" viewBox="0 0 32 32" fill="none" xmlns="http://www.w3.org/2000/svg">
<g clip-path="url(#clip0_1_59)">
<path d="M32 24C32 24.943 31.6254 25.8474 30.9586 26.5142C30.2918 27.181 29.3874 27.5556 28.4444 27.5556H3.55556C2.61256 27.5556 1.70819 27.181 1.0414 26.5142C0.374602 25.8474 0 24.943 0 24V8.00001C0 7.05702 0.374602 6.15265 1.0414 5.48586C1.70819 4.81906 2.61256 4.44446 3.55556 4.44446H28.4444C29.3874 4.44446 30.2918 4.81906 30.9586 5.48586C31.6254 6.15265 32 7.05702 32 8.00001V24Z" fill="#006A4D"/>
<path d="M14.2222 21.7778C17.6587 21.7778 20.4444 18.992 20.4444 15.5556C20.4444 12.1192 17.6587 9.33337 14.2222 9.33337C10.7858 9.33337 8 12.1192 8 15.5556C8 18.992 10.7858 21.7778 14.2222 21.7778Z" fill="#F42A41"/>
</g>
<defs>
<clipPath id="clip0_1_59">
<rect width="32" height="32" fill="white"/>
</clipPath>
</defs>
</svg>
