<svg width="20" height="20" viewBox="0 0 20 20" fill="none" xmlns="http://www.w3.org/2000/svg">
<path d="M19.375 12.5C19.375 11.9883 19.375 3.15312 19.375 2.8125C19.375 2.46734 19.0952 2.1875 18.75 2.1875C18.4048 2.1875 18.125 2.46734 18.125 2.8125V3.4375H1.875V2.8125C1.875 2.46734 1.59516 2.1875 1.25 2.1875C0.904844 2.1875 0.625 2.46734 0.625 2.8125V12.5C0.279844 12.5 0 12.7798 0 13.125V17.1875C0 17.5327 0.279844 17.8125 0.625 17.8125H2.1875C2.38422 17.8125 2.56945 17.7199 2.6875 17.5625L3.4375 16.5625H16.5625L17.3125 17.5625C17.4305 17.7199 17.6158 17.8125 17.8125 17.8125H19.375C19.7202 17.8125 20 17.5327 20 17.1875V13.125C20 12.7798 19.7202 12.5 19.375 12.5ZM18.125 9.71133C17.4529 9.32152 16.922 9.375 16.25 9.375V8.125C16.25 7.09113 15.4089 6.25 14.375 6.25H11.25C10.7702 6.25 10.332 6.43141 10 6.72895C9.66801 6.43141 9.22984 6.25 8.75 6.25H5.625C4.59113 6.25 3.75 7.09113 3.75 8.125V9.375C3.0473 9.375 2.54348 9.32363 1.875 9.71133V4.6875H18.125V9.71133ZM5 9.375V8.125C5 7.78039 5.28039 7.5 5.625 7.5H8.75C9.09461 7.5 9.375 7.78039 9.375 8.125V9.375H5ZM10.625 8.125C10.625 7.78039 10.9054 7.5 11.25 7.5H14.375C14.7196 7.5 15 7.78039 15 8.125V9.375H10.625V8.125ZM1.875 11.875C1.875 11.1857 2.43574 10.625 3.125 10.625H16.875C17.5643 10.625 18.125 11.1857 18.125 11.875V12.5H1.875V11.875ZM18.75 16.5625H18.125L17.375 15.5625C17.257 15.4051 17.0717 15.3125 16.875 15.3125H3.125C2.92828 15.3125 2.74305 15.4051 2.625 15.5625L1.875 16.5625H1.25V13.75H18.75V16.5625Z" fill="black"/>
</svg>
