<svg width="16" height="16" viewBox="0 0 16 16" fill="none" xmlns="http://www.w3.org/2000/svg">
<g clip-path="url(#clip0_1_146)">
<path d="M15 1.4987L10.9965 1.49871V0.502212C10.9965 0.225962 10.7727 0.00221252 10.4965 0.00221252C10.2203 0.00221252 9.9965 0.225962 9.9965 0.502212V1.49846H5.9965V0.502212C5.9965 0.225962 5.77275 0.00221252 5.4965 0.00221252C5.22025 0.00221252 4.9965 0.225962 4.9965 0.502212V1.49846H1C0.44775 1.49846 0 1.94621 0 2.49846V14.9985C0 15.5507 0.44775 15.9985 1 15.9985H15C15.5522 15.9985 16 15.5507 16 14.9985V2.49846C16 1.94645 15.5522 1.4987 15 1.4987ZM15 14.9985H1V2.49846H4.9965V3.00221C4.9965 3.27845 5.22025 3.50221 5.4965 3.50221C5.77275 3.50221 5.9965 3.27845 5.9965 3.00221V2.49871H9.9965V3.00246C9.9965 3.27871 10.2203 3.50246 10.4965 3.50246C10.7727 3.50246 10.9965 3.27871 10.9965 3.00246V2.49871H15V14.9985ZM11.5 7.9987H12.5C12.776 7.9987 13 7.7747 13 7.4987V6.4987C13 6.2227 12.776 5.9987 12.5 5.9987H11.5C11.224 5.9987 11 6.2227 11 6.4987V7.4987C11 7.7747 11.224 7.9987 11.5 7.9987ZM11.5 11.9984H12.5C12.776 11.9984 13 11.7747 13 11.4984V10.4984C13 10.2224 12.776 9.99845 12.5 9.99845H11.5C11.224 9.99845 11 10.2224 11 10.4984V11.4984C11 11.7749 11.224 11.9984 11.5 11.9984ZM8.5 9.99845H7.5C7.224 9.99845 7 10.2224 7 10.4984V11.4984C7 11.7747 7.224 11.9984 7.5 11.9984H8.5C8.776 11.9984 9 11.7747 9 11.4984V10.4984C9 10.2227 8.776 9.99845 8.5 9.99845ZM8.5 5.9987H7.5C7.224 5.9987 7 6.2227 7 6.4987V7.4987C7 7.7747 7.224 7.9987 7.5 7.9987H8.5C8.776 7.9987 9 7.7747 9 7.4987V6.4987C9 6.22245 8.776 5.9987 8.5 5.9987ZM4.5 5.9987H3.5C3.224 5.9987 3 6.2227 3 6.4987V7.4987C3 7.7747 3.224 7.9987 3.5 7.9987H4.5C4.776 7.9987 5 7.7747 5 7.4987V6.4987C5 6.22245 4.776 5.9987 4.5 5.9987ZM4.5 9.99845H3.5C3.224 9.99845 3 10.2224 3 10.4984V11.4984C3 11.7747 3.224 11.9984 3.5 11.9984H4.5C4.776 11.9984 5 11.7747 5 11.4984V10.4984C5 10.2227 4.776 9.99845 4.5 9.99845Z" fill="#222222"/>
</g>
<defs>
<clipPath id="clip0_1_146">
<rect width="16" height="16" fill="white"/>
</clipPath>
</defs>
</svg>
