<svg width="25" height="18" viewBox="0 0 25 18" fill="none" xmlns="http://www.w3.org/2000/svg">
<path d="M7.85714 14.7143H17M7.85714 14.7143C7.85714 15.9767 6.83379 17 5.57143 17C4.30906 17 3.28571 15.9767 3.28571 14.7143M7.85714 14.7143C7.85714 13.4519 6.83379 12.4286 5.57143 12.4286C4.30906 12.4286 3.28571 13.4519 3.28571 14.7143M17 14.7143C17 15.9767 18.0233 17 19.2857 17C20.5481 17 21.5714 15.9767 21.5714 14.7143M17 14.7143C17 13.4519 18.0233 12.4286 19.2857 12.4286C20.5481 12.4286 21.5714 13.4519 21.5714 14.7143M3.28571 14.7143H2.82857C2.18851 14.7143 1.86848 14.7143 1.62401 14.5897C1.40897 14.4801 1.23414 14.3054 1.12456 14.0903C1 13.8458 1 13.5258 1 12.8857V11.5143C1 10.2342 1 9.59406 1.24913 9.10514C1.46826 8.67509 1.81793 8.32537 2.24802 8.10629C2.73696 7.85714 3.37703 7.85714 4.65714 7.85714H18.3714C19.2208 7.85714 19.6455 7.85714 20.0008 7.91337C21.9569 8.2232 23.4911 9.75737 23.8009 11.7135C23.8571 12.0688 23.8571 12.4935 23.8571 13.3429C23.8571 13.5552 23.8571 13.6614 23.8431 13.7502C23.7656 14.2392 23.3821 14.6227 22.893 14.7002C22.8042 14.7143 22.6981 14.7143 22.4857 14.7143H21.5714M10.1429 1V7.85714M3.28571 7.85714L3.66459 5.58386C3.93601 3.95535 4.07173 3.14109 4.47806 2.53006C4.83624 1.99143 5.33949 1.56511 5.92967 1.30035C6.5992 1 7.42469 1 9.07567 1H12.9213C13.9946 1 14.5313 1 15.0185 1.14794C15.4498 1.27893 15.851 1.49365 16.1992 1.77984C16.5926 2.10312 16.8903 2.54968 17.4857 3.44279L20.4286 7.85714" stroke="black" stroke-width="1.3" stroke-linecap="round" stroke-linejoin="round"/>
</svg>
