<svg width="15" height="16" viewBox="0 0 15 16" fill="none" xmlns="http://www.w3.org/2000/svg">
<path d="M12.098 5.94381H9.21795V2.58188C9.21764 1.15556 8.06239 0.0003125 6.63608 0H2.6112C1.18489 0.0003125 0.0296406 1.15556 0.0292969 2.58188V16H1.18583V2.58188C1.18614 2.18656 1.34458 1.83387 1.60342 1.57409C1.86323 1.31522 2.21589 1.15681 2.6112 1.15647H6.63608C7.03139 1.15678 7.38408 1.31522 7.64386 1.57409C7.9027 1.83387 8.06114 2.18656 8.06145 2.58188V16H9.21795V7.10031H12.098C12.4933 7.10063 12.846 7.25906 13.1057 7.51794C13.3646 7.77772 13.523 8.13041 13.5234 8.52572V16H14.6799V8.52569C14.6795 7.09937 13.5243 5.94412 12.098 5.94381Z" fill="black"/>
<path d="M3.82701 4.1123H2.83301V5.79905H3.82701V4.1123Z" fill="black"/>
<path d="M6.28502 4.1123H5.29102V5.79905H6.28502V4.1123Z" fill="black"/>
<path d="M3.82701 7.96777H2.83301V9.65452H3.82701V7.96777Z" fill="black"/>
<path d="M6.28502 7.96777H5.29102V9.65452H6.28502V7.96777Z" fill="black"/>
<path d="M3.82701 11.8232H2.83301V13.51H3.82701V11.8232Z" fill="black"/>
<path d="M6.28502 11.8232H5.29102V13.51H6.28502V11.8232Z" fill="black"/>
<path d="M11.7069 9.05225H10.7129V10.739H11.7069V9.05225Z" fill="black"/>
<path d="M11.7069 12.7469H10.7129V14.4337H11.7069V12.7469Z" fill="black"/>
</svg>
