<svg width="24" height="19" viewBox="0 0 24 19" fill="none" xmlns="http://www.w3.org/2000/svg">
<path d="M21.7473 16.4568C21.7892 16.6569 21.7812 16.8053 21.7685 16.8848C21.5524 17.0218 20.737 17.3164 19.6858 16.6301L14.3269 13.1286L13.7836 13.2758C12.6476 13.5845 10.6127 14.1411 8.86814 14.619C7.31486 15.0433 5.84845 15.4449 5.7233 15.4776C5.63679 15.4989 5.6168 15.5044 5.50222 15.4438C5.24453 15.3088 4.80046 15.0489 4.43155 14.8295C5.52901 14.1381 7.84723 12.6833 9.14655 11.8759L10.8185 10.8379L9.17028 9.76097L6.23661 7.76047L5.81539 7.48419L5.32083 7.57633C4.92622 7.65009 4.22077 7.7999 3.59928 7.93147C3.16621 8.02354 2.77243 8.10737 2.55513 8.14973C2.54353 8.14639 2.55053 8.23783 2.53474 8.23281C2.60947 8.1614 2.68944 8.0844 2.77307 8.00344C3.47305 7.32936 4.44049 6.39674 4.74385 6.11081L4.96588 5.90151L5.06689 5.61315C5.43404 4.56481 5.86663 3.39767 6.14044 2.68351C6.15722 2.70241 6.09467 2.73411 6.10573 2.74717L6.11436 2.78829C6.15592 2.98654 6.2202 3.31458 6.29211 3.68203C6.38598 4.16341 6.49261 4.70876 6.57985 5.12489C6.61331 5.28447 6.64425 5.426 6.67064 5.53964L6.78501 6.03018L7.20611 6.30585L10.1993 8.19585L11.8409 9.26902L12.1261 7.32864C12.3407 5.87018 12.765 3.07409 12.9666 1.76507C13.3185 2.01616 13.7371 2.31989 13.9646 2.5003C14.0277 2.55052 14.0635 2.59299 14.0704 2.62613L14.0783 2.66996C14.1 2.80702 14.3431 4.51043 14.5769 6.15746C14.8255 7.90583 15.1072 9.87922 15.2687 11.0013L15.3503 11.5615L20.7107 15.0639C21.4629 15.5559 21.6838 16.1478 21.7486 16.4571L21.7473 16.4568ZM22.9742 16.1996C22.8222 15.4747 22.3569 14.6425 21.3948 14.0145L16.5088 10.822C16.1761 8.51654 15.3393 2.60873 15.3132 2.46298C15.3091 2.43695 15.3036 2.40477 15.2961 2.36917C15.2548 2.17215 15.1462 1.84059 14.7454 1.52095C14.2752 1.14538 13.1863 0.38626 13.1863 0.38626C12.9095 0.205932 12.6018 0.149989 12.3406 0.23358C12.1832 0.283863 11.9076 0.433266 11.8358 0.860958C11.7924 1.12124 11.1627 5.24509 10.8835 7.14704L7.89032 5.25704C7.86548 5.15076 7.83646 5.01844 7.80519 4.86929C7.65104 4.134 7.43604 2.98921 7.34018 2.53195C7.32744 2.47119 7.31728 2.4227 7.30885 2.38858C7.27534 2.25016 7.28374 1.94789 6.48993 1.3217L6.42828 1.27824C6.15284 1.09827 5.91455 1.09248 5.76314 1.11909C5.60744 1.14661 5.39327 1.23444 5.26101 1.49604C5.18055 1.65323 4.43879 3.6073 3.88136 5.19979C3.39938 5.65452 1.24841 7.73294 1.13111 7.84275C0.955373 8.0039 0.881257 8.22191 0.923273 8.45595L0.927262 8.47497C0.974612 8.70084 1.13557 8.9093 1.40352 9.0902C2.28949 9.57532 2.58202 9.42109 2.71401 9.39663C3.12619 9.32111 4.85956 8.93978 5.55117 8.80953L8.48532 10.8093C6.86107 11.8181 3.36993 14.0109 3.14841 14.1554C2.78521 14.3942 2.7603 14.7064 2.77744 14.8707C2.77991 14.8977 2.78434 14.925 2.78987 14.9514C2.8407 15.1938 3.00736 15.4203 3.25559 15.5835C3.25559 15.5835 4.38304 16.273 4.91992 16.5539C5.45679 16.8348 5.8448 16.7387 6.02739 16.6927C6.15441 16.6629 11.8757 15.0925 14.111 14.4861L18.9985 17.6795C20.7313 18.8111 22.4094 18.2216 22.8289 17.5788C23.0159 17.2942 23.0943 16.7818 22.9726 16.2012L22.9742 16.1996Z" fill="#222222"/>
</svg>
