<svg width="21" height="20" viewBox="0 0 21 20" fill="none" xmlns="http://www.w3.org/2000/svg">
<path d="M18.2914 1.2536C18.4958 1.2536 18.6394 1.29185 18.7147 1.3207C18.8043 1.56025 18.9254 2.41877 18.038 3.30676L13.5115 7.83325L13.5441 8.39515C13.6131 9.57035 13.7404 11.6762 13.8502 13.4817C13.9467 15.0889 14.0389 16.6065 14.0452 16.7357C14.0483 16.8248 14.0496 16.8455 13.9668 16.9452C13.7818 17.1697 13.4363 17.551 13.1459 17.867C12.6944 16.6511 11.7462 14.0837 11.2226 12.6463L10.5497 10.797L9.15747 12.1892L6.5976 14.65L6.24077 15.0055L6.22949 15.5085C6.22071 15.9098 6.22259 16.631 6.22384 17.2663C6.2251 17.709 6.22635 18.1116 6.22322 18.333C6.21757 18.3436 6.3085 18.3556 6.30035 18.37C6.24579 18.2822 6.18684 18.1881 6.12476 18.0897C5.60865 17.2663 4.89436 16.1281 4.67676 15.7725L4.51747 15.5122L4.25596 15.3542C3.30526 14.7798 2.25171 14.1169 1.60892 13.7024C1.63087 13.6899 1.64906 13.7576 1.66411 13.7494H1.70613C1.90868 13.7494 2.24293 13.7538 2.61732 13.7588C3.10772 13.7657 3.66334 13.7733 4.08853 13.7733C4.25157 13.7733 4.39644 13.772 4.51308 13.7695L5.01665 13.7582L5.37285 13.4026L7.83677 10.8609L9.22395 9.47441L7.38337 8.79712C5.99996 8.28791 3.35041 7.29895 2.11061 6.83301C2.42856 6.54015 2.81173 6.19273 3.03498 6.0071C3.09706 5.95568 3.14598 5.92934 3.17984 5.92934L3.22437 5.9306C3.36296 5.93749 5.07999 6.04912 6.73995 6.15824C8.50214 6.27363 10.4913 6.40281 11.6227 6.47493L12.1877 6.51005L16.7154 1.9823C17.3513 1.34704 17.9759 1.25234 18.292 1.25234L18.2914 1.2536ZM18.2914 0C17.5507 0 16.6408 0.284709 15.8287 1.09745L11.7017 5.22447C9.37696 5.0771 3.42316 4.6839 3.27516 4.67951C3.24882 4.67825 3.21621 4.677 3.17984 4.677C2.97854 4.677 2.63174 4.71525 2.23666 5.04198C1.7726 5.42514 0.806221 6.33508 0.806221 6.33508C0.572936 6.569 0.455039 6.85872 0.483259 7.13152C0.500191 7.29582 0.589868 7.59621 0.993728 7.75424C1.23956 7.85019 5.14646 9.31261 6.95067 9.9761L4.48674 12.5178C4.37762 12.5203 4.24217 12.5215 4.08978 12.5215C3.3385 12.5215 2.17395 12.4971 1.70675 12.4971C1.64467 12.4971 1.59513 12.4971 1.56001 12.4983C1.41766 12.5027 1.12354 12.4325 0.347802 13.0809L0.292617 13.1323C0.059958 13.365 0.00539922 13.597 0.000382321 13.7507C-0.00463458 13.9087 0.037382 14.1364 0.266278 14.3195C0.403615 14.4305 2.16392 15.5574 3.60816 16.4297C3.95432 16.9947 5.54719 19.5264 5.63059 19.6637C5.75225 19.8688 5.95042 19.9861 6.1881 19.993H6.20754C6.43831 19.993 6.67536 19.8782 6.90739 19.6531C7.56398 18.8855 7.47305 18.5675 7.47618 18.4333C7.48685 18.0144 7.46929 16.2397 7.48371 15.5361L10.043 13.0747C10.697 14.8713 12.1268 18.7381 12.2228 18.9846C12.3821 19.389 12.6825 19.4775 12.8468 19.4944C12.8737 19.4975 12.9013 19.4988 12.9283 19.4988C13.176 19.4988 13.4319 19.3821 13.6426 19.1727C13.6426 19.1727 14.5488 18.2107 14.9338 17.7429C15.3188 17.275 15.3044 16.8756 15.2969 16.6874C15.2938 16.557 14.9307 10.6352 14.7958 8.32303L18.9241 4.19475C20.3872 2.73107 20.1545 0.967634 19.6114 0.425182C19.3712 0.183744 18.8859 0.00188134 18.2926 0.00188134L18.2914 0Z" fill="#222222"/>
</svg>
